<mxfile host="app.diagrams.net" agent="Mozilla/5.0 (Macintosh; Intel Mac OS X 10_14_6) AppleWebKit/605.1.15 (KHTML, like Gecko) Version/14.1.2 Safari/605.1.15" version="24.8.3">
  <diagram name="Page-1" id="JNNMsCdFVjWHwH4HeEpe">
    <mxGraphModel dx="954" dy="543" grid="1" gridSize="10" guides="1" tooltips="1" connect="1" arrows="1" fold="1" page="1" pageScale="1" pageWidth="850" pageHeight="1100" math="0" shadow="0">
      <root>
        <mxCell id="0" />
        <mxCell id="1" parent="0" />
        <mxCell id="bprFpwVtBoHuUyFs9eWT-1" value="AWS S3" style="sketch=0;outlineConnect=0;fontColor=#232F3E;gradientColor=none;fillColor=#7AA116;strokeColor=none;dashed=0;verticalLabelPosition=bottom;verticalAlign=top;align=center;html=1;fontSize=12;fontStyle=0;aspect=fixed;pointerEvents=1;shape=mxgraph.aws4.bucket;" parent="1" vertex="1">
          <mxGeometry x="592.5" y="315" width="65" height="67.6" as="geometry" />
        </mxCell>
        <mxCell id="bprFpwVtBoHuUyFs9eWT-2" value="Bucket Policies&lt;div&gt;Cross account access&lt;/div&gt;" style="verticalLabelPosition=bottom;sketch=0;html=1;fillColor=#A153A0;strokeColor=#ffffff;verticalAlign=top;align=center;points=[[0,0.5,0],[0.125,0.25,0],[0.25,0,0],[0.5,0,0],[0.75,0,0],[0.875,0.25,0],[1,0.5,0],[0.875,0.75,0],[0.75,1,0],[0.5,1,0],[0.125,0.75,0]];pointerEvents=1;shape=mxgraph.cisco_safe.compositeIcon;bgIcon=mxgraph.cisco_safe.design.blank_device;resIcon=mxgraph.cisco_safe.design.policy_2;" parent="1" vertex="1">
          <mxGeometry x="592.5" y="190" width="50" height="45" as="geometry" />
        </mxCell>
        <mxCell id="bprFpwVtBoHuUyFs9eWT-4" style="edgeStyle=orthogonalEdgeStyle;rounded=0;orthogonalLoop=1;jettySize=auto;html=1;" parent="1" source="bprFpwVtBoHuUyFs9eWT-3" target="bprFpwVtBoHuUyFs9eWT-1" edge="1">
          <mxGeometry relative="1" as="geometry" />
        </mxCell>
        <mxCell id="bprFpwVtBoHuUyFs9eWT-3" value="User with multiple&amp;nbsp;&lt;div&gt;AWS accounts&lt;/div&gt;" style="shape=image;html=1;verticalAlign=top;verticalLabelPosition=bottom;labelBackgroundColor=#ffffff;imageAspect=0;aspect=fixed;image=https://cdn2.iconfinder.com/data/icons/essential-web-2/50/user-group-team-duo-partner-128.png" parent="1" vertex="1">
          <mxGeometry x="240" y="315" width="68" height="68" as="geometry" />
        </mxCell>
        <mxCell id="bprFpwVtBoHuUyFs9eWT-5" value="User access based on S3 resource policy" style="text;html=1;align=center;verticalAlign=middle;whiteSpace=wrap;rounded=0;fontSize=15;" parent="1" vertex="1">
          <mxGeometry x="320" y="150" width="220" height="30" as="geometry" />
        </mxCell>
        <mxCell id="bprFpwVtBoHuUyFs9eWT-6" value="AWS S3" style="sketch=0;outlineConnect=0;fontColor=#232F3E;gradientColor=none;fillColor=#7AA116;strokeColor=none;dashed=0;verticalLabelPosition=bottom;verticalAlign=top;align=center;html=1;fontSize=12;fontStyle=0;aspect=fixed;pointerEvents=1;shape=mxgraph.aws4.bucket;" parent="1" vertex="1">
          <mxGeometry x="592.5" y="665" width="65" height="67.6" as="geometry" />
        </mxCell>
        <mxCell id="bprFpwVtBoHuUyFs9eWT-7" value="IAMt Policies" style="verticalLabelPosition=bottom;sketch=0;html=1;fillColor=#A153A0;strokeColor=#ffffff;verticalAlign=top;align=center;points=[[0,0.5,0],[0.125,0.25,0],[0.25,0,0],[0.5,0,0],[0.75,0,0],[0.875,0.25,0],[1,0.5,0],[0.875,0.75,0],[0.75,1,0],[0.5,1,0],[0.125,0.75,0]];pointerEvents=1;shape=mxgraph.cisco_safe.compositeIcon;bgIcon=mxgraph.cisco_safe.design.blank_device;resIcon=mxgraph.cisco_safe.design.policy_2;" parent="1" vertex="1">
          <mxGeometry x="240" y="560" width="50" height="45" as="geometry" />
        </mxCell>
        <mxCell id="bprFpwVtBoHuUyFs9eWT-8" style="edgeStyle=orthogonalEdgeStyle;rounded=0;orthogonalLoop=1;jettySize=auto;html=1;" parent="1" source="bprFpwVtBoHuUyFs9eWT-9" target="bprFpwVtBoHuUyFs9eWT-6" edge="1">
          <mxGeometry relative="1" as="geometry" />
        </mxCell>
        <mxCell id="bprFpwVtBoHuUyFs9eWT-9" value="User with EC2 access role" style="shape=image;html=1;verticalAlign=top;verticalLabelPosition=bottom;labelBackgroundColor=#ffffff;imageAspect=0;aspect=fixed;image=https://cdn2.iconfinder.com/data/icons/essential-web-2/50/user-group-team-duo-partner-128.png" parent="1" vertex="1">
          <mxGeometry x="240" y="665" width="68" height="68" as="geometry" />
        </mxCell>
        <mxCell id="bprFpwVtBoHuUyFs9eWT-10" value="User access based on IAM policy" style="text;html=1;align=center;verticalAlign=middle;whiteSpace=wrap;rounded=0;fontSize=15;" parent="1" vertex="1">
          <mxGeometry x="320" y="500" width="220" height="30" as="geometry" />
        </mxCell>
        <mxCell id="bprFpwVtBoHuUyFs9eWT-11" value="EC2 instance role" style="sketch=0;outlineConnect=0;fontColor=#232F3E;gradientColor=none;fillColor=#DD344C;strokeColor=none;dashed=0;verticalLabelPosition=bottom;verticalAlign=top;align=center;html=1;fontSize=12;fontStyle=0;aspect=fixed;pointerEvents=1;shape=mxgraph.aws4.role;" parent="1" vertex="1">
          <mxGeometry x="110" y="560" width="78" height="44" as="geometry" />
        </mxCell>
        <mxCell id="EblbpX1gaJVEb5riWeuY-1" value="Big File" style="whiteSpace=wrap;html=1;shape=mxgraph.basic.document" vertex="1" parent="1">
          <mxGeometry x="110" y="1080" width="100" height="100" as="geometry" />
        </mxCell>
        <mxCell id="EblbpX1gaJVEb5riWeuY-2" value="" style="image;aspect=fixed;html=1;points=[];align=center;fontSize=12;image=img/lib/azure2/general/File.svg;" vertex="1" parent="1">
          <mxGeometry x="310" y="1010" width="40" height="49.29" as="geometry" />
        </mxCell>
        <mxCell id="EblbpX1gaJVEb5riWeuY-3" value="" style="image;aspect=fixed;html=1;points=[];align=center;fontSize=12;image=img/lib/azure2/general/File.svg;" vertex="1" parent="1">
          <mxGeometry x="310" y="1090" width="40" height="49.29" as="geometry" />
        </mxCell>
        <mxCell id="EblbpX1gaJVEb5riWeuY-4" value="" style="image;aspect=fixed;html=1;points=[];align=center;fontSize=12;image=img/lib/azure2/general/File.svg;" vertex="1" parent="1">
          <mxGeometry x="310" y="1180" width="40" height="49.29" as="geometry" />
        </mxCell>
        <mxCell id="EblbpX1gaJVEb5riWeuY-5" value="AWS S3" style="sketch=0;outlineConnect=0;fontColor=#232F3E;gradientColor=none;fillColor=#7AA116;strokeColor=none;dashed=0;verticalLabelPosition=bottom;verticalAlign=top;align=center;html=1;fontSize=12;fontStyle=0;aspect=fixed;pointerEvents=1;shape=mxgraph.aws4.bucket;" vertex="1" parent="1">
          <mxGeometry x="490" y="1080" width="65" height="67.6" as="geometry" />
        </mxCell>
        <mxCell id="EblbpX1gaJVEb5riWeuY-6" value="Parallel Uploads" style="text;html=1;align=center;verticalAlign=middle;whiteSpace=wrap;rounded=0;" vertex="1" parent="1">
          <mxGeometry x="415" y="1019.65" width="95" height="30" as="geometry" />
        </mxCell>
        <mxCell id="EblbpX1gaJVEb5riWeuY-7" value="" style="endArrow=classic;html=1;rounded=0;exitX=1.075;exitY=0.69;exitDx=0;exitDy=0;exitPerimeter=0;" edge="1" parent="1" source="EblbpX1gaJVEb5riWeuY-4" target="EblbpX1gaJVEb5riWeuY-5">
          <mxGeometry width="50" height="50" relative="1" as="geometry">
            <mxPoint x="390" y="1250" as="sourcePoint" />
            <mxPoint x="440" y="1200" as="targetPoint" />
          </mxGeometry>
        </mxCell>
        <mxCell id="EblbpX1gaJVEb5riWeuY-8" value="" style="endArrow=classic;html=1;rounded=0;exitX=1.075;exitY=0.69;exitDx=0;exitDy=0;exitPerimeter=0;" edge="1" parent="1" target="EblbpX1gaJVEb5riWeuY-5">
          <mxGeometry width="50" height="50" relative="1" as="geometry">
            <mxPoint x="350" y="1121" as="sourcePoint" />
            <mxPoint x="487" y="1040" as="targetPoint" />
          </mxGeometry>
        </mxCell>
        <mxCell id="EblbpX1gaJVEb5riWeuY-9" value="" style="endArrow=classic;html=1;rounded=0;exitX=1.05;exitY=0.649;exitDx=0;exitDy=0;exitPerimeter=0;" edge="1" parent="1" source="EblbpX1gaJVEb5riWeuY-2" target="EblbpX1gaJVEb5riWeuY-5">
          <mxGeometry width="50" height="50" relative="1" as="geometry">
            <mxPoint x="360" y="1131" as="sourcePoint" />
            <mxPoint x="500" y="1125" as="targetPoint" />
          </mxGeometry>
        </mxCell>
        <mxCell id="EblbpX1gaJVEb5riWeuY-11" value="" style="endArrow=classic;html=1;rounded=0;exitX=1.01;exitY=0.63;exitDx=0;exitDy=0;exitPerimeter=0;entryX=0.025;entryY=0.568;entryDx=0;entryDy=0;entryPerimeter=0;" edge="1" parent="1" source="EblbpX1gaJVEb5riWeuY-1" target="EblbpX1gaJVEb5riWeuY-4">
          <mxGeometry width="50" height="50" relative="1" as="geometry">
            <mxPoint x="390" y="1250" as="sourcePoint" />
            <mxPoint x="440" y="1200" as="targetPoint" />
          </mxGeometry>
        </mxCell>
        <mxCell id="EblbpX1gaJVEb5riWeuY-12" value="" style="endArrow=classic;html=1;rounded=0;entryX=0.025;entryY=0.67;entryDx=0;entryDy=0;entryPerimeter=0;" edge="1" parent="1" target="EblbpX1gaJVEb5riWeuY-3">
          <mxGeometry width="50" height="50" relative="1" as="geometry">
            <mxPoint x="210" y="1140" as="sourcePoint" />
            <mxPoint x="321" y="1218" as="targetPoint" />
          </mxGeometry>
        </mxCell>
        <mxCell id="EblbpX1gaJVEb5riWeuY-13" value="" style="endArrow=classic;html=1;rounded=0;entryX=0.025;entryY=0.588;entryDx=0;entryDy=0;entryPerimeter=0;exitX=0.99;exitY=0.61;exitDx=0;exitDy=0;exitPerimeter=0;" edge="1" parent="1" source="EblbpX1gaJVEb5riWeuY-1" target="EblbpX1gaJVEb5riWeuY-2">
          <mxGeometry width="50" height="50" relative="1" as="geometry">
            <mxPoint x="220" y="1150" as="sourcePoint" />
            <mxPoint x="321" y="1133" as="targetPoint" />
          </mxGeometry>
        </mxCell>
        <mxCell id="EblbpX1gaJVEb5riWeuY-14" value="Divide in&amp;nbsp;&lt;div&gt;Parts&lt;/div&gt;" style="text;html=1;align=center;verticalAlign=middle;whiteSpace=wrap;rounded=0;" vertex="1" parent="1">
          <mxGeometry x="185" y="1010" width="95" height="30" as="geometry" />
        </mxCell>
        <mxCell id="EblbpX1gaJVEb5riWeuY-15" value="Multi Part Upload" style="text;html=1;align=center;verticalAlign=middle;whiteSpace=wrap;rounded=0;fontSize=18;" vertex="1" parent="1">
          <mxGeometry x="210" y="910" width="220" height="30" as="geometry" />
        </mxCell>
        <mxCell id="EblbpX1gaJVEb5riWeuY-20" style="edgeStyle=orthogonalEdgeStyle;rounded=0;orthogonalLoop=1;jettySize=auto;html=1;" edge="1" parent="1" source="EblbpX1gaJVEb5riWeuY-16" target="EblbpX1gaJVEb5riWeuY-18">
          <mxGeometry relative="1" as="geometry" />
        </mxCell>
        <mxCell id="EblbpX1gaJVEb5riWeuY-16" value="Edge Location" style="sketch=0;outlineConnect=0;fontColor=#232F3E;gradientColor=none;fillColor=#8C4FFF;strokeColor=none;dashed=0;verticalLabelPosition=bottom;verticalAlign=top;align=center;html=1;fontSize=12;fontStyle=0;aspect=fixed;pointerEvents=1;shape=mxgraph.aws4.edge_location;" vertex="1" parent="1">
          <mxGeometry x="890" y="1080" width="40" height="40" as="geometry" />
        </mxCell>
        <mxCell id="EblbpX1gaJVEb5riWeuY-19" value="" style="edgeStyle=orthogonalEdgeStyle;rounded=0;orthogonalLoop=1;jettySize=auto;html=1;" edge="1" parent="1" source="EblbpX1gaJVEb5riWeuY-17" target="EblbpX1gaJVEb5riWeuY-16">
          <mxGeometry relative="1" as="geometry" />
        </mxCell>
        <mxCell id="EblbpX1gaJVEb5riWeuY-17" value="File&lt;div&gt;USA&lt;/div&gt;" style="image;aspect=fixed;html=1;points=[];align=center;fontSize=12;image=img/lib/azure2/general/File.svg;" vertex="1" parent="1">
          <mxGeometry x="740" y="1080" width="40" height="49.29" as="geometry" />
        </mxCell>
        <mxCell id="EblbpX1gaJVEb5riWeuY-18" value="AWS S3&lt;div&gt;Australia&lt;/div&gt;" style="sketch=0;outlineConnect=0;fontColor=#232F3E;gradientColor=none;fillColor=#7AA116;strokeColor=none;dashed=0;verticalLabelPosition=bottom;verticalAlign=top;align=center;html=1;fontSize=12;fontStyle=0;aspect=fixed;pointerEvents=1;shape=mxgraph.aws4.bucket;" vertex="1" parent="1">
          <mxGeometry x="1060" y="1059.29" width="65" height="67.6" as="geometry" />
        </mxCell>
        <mxCell id="EblbpX1gaJVEb5riWeuY-21" value="Fast&amp;nbsp;&lt;div&gt;Private in AWS&lt;/div&gt;" style="text;html=1;align=center;verticalAlign=middle;resizable=0;points=[];autosize=1;strokeColor=none;fillColor=none;" vertex="1" parent="1">
          <mxGeometry x="930" y="1059.29" width="100" height="40" as="geometry" />
        </mxCell>
        <mxCell id="EblbpX1gaJVEb5riWeuY-22" value="Fast&amp;nbsp;&lt;div&gt;public www&lt;/div&gt;" style="text;html=1;align=center;verticalAlign=middle;resizable=0;points=[];autosize=1;strokeColor=none;fillColor=none;" vertex="1" parent="1">
          <mxGeometry x="780" y="1059.29" width="80" height="40" as="geometry" />
        </mxCell>
        <mxCell id="EblbpX1gaJVEb5riWeuY-23" value="File in S3" style="rounded=0;whiteSpace=wrap;html=1;" vertex="1" parent="1">
          <mxGeometry x="100" y="1340" width="310" height="30" as="geometry" />
        </mxCell>
        <mxCell id="EblbpX1gaJVEb5riWeuY-24" value="Part 1" style="rounded=0;whiteSpace=wrap;html=1;" vertex="1" parent="1">
          <mxGeometry x="100" y="1420" width="70" height="30" as="geometry" />
        </mxCell>
        <mxCell id="EblbpX1gaJVEb5riWeuY-25" value="Part 2" style="rounded=0;whiteSpace=wrap;html=1;" vertex="1" parent="1">
          <mxGeometry x="220" y="1420" width="70" height="30" as="geometry" />
        </mxCell>
        <mxCell id="EblbpX1gaJVEb5riWeuY-26" value="Part 3" style="rounded=0;whiteSpace=wrap;html=1;" vertex="1" parent="1">
          <mxGeometry x="345" y="1420" width="70" height="30" as="geometry" />
        </mxCell>
        <mxCell id="EblbpX1gaJVEb5riWeuY-27" value="S3 Byte Range Fetches" style="text;html=1;align=center;verticalAlign=middle;resizable=0;points=[];autosize=1;strokeColor=none;fillColor=none;fontSize=16;" vertex="1" parent="1">
          <mxGeometry x="402.5" y="1270" width="190" height="30" as="geometry" />
        </mxCell>
        <mxCell id="EblbpX1gaJVEb5riWeuY-28" value="File in S3" style="rounded=0;whiteSpace=wrap;html=1;" vertex="1" parent="1">
          <mxGeometry x="560" y="1340" width="310" height="30" as="geometry" />
        </mxCell>
        <mxCell id="EblbpX1gaJVEb5riWeuY-29" value="header" style="rounded=0;whiteSpace=wrap;html=1;" vertex="1" parent="1">
          <mxGeometry x="560" y="1420" width="70" height="30" as="geometry" />
        </mxCell>
        <mxCell id="EblbpX1gaJVEb5riWeuY-32" value="Byte Rang request for header&lt;div&gt;First XX bytes&lt;/div&gt;" style="text;html=1;align=center;verticalAlign=middle;resizable=0;points=[];autosize=1;strokeColor=none;fillColor=none;" vertex="1" parent="1">
          <mxGeometry x="625" y="1383" width="180" height="40" as="geometry" />
        </mxCell>
        <mxCell id="EblbpX1gaJVEb5riWeuY-33" value="Requests in parallel" style="text;html=1;align=center;verticalAlign=middle;resizable=0;points=[];autosize=1;strokeColor=none;fillColor=none;" vertex="1" parent="1">
          <mxGeometry x="155" y="1468" width="130" height="30" as="geometry" />
        </mxCell>
      </root>
    </mxGraphModel>
  </diagram>
</mxfile>
